<?xml version="1.0" encoding="utf-8"?>
<!-- Generator: Adobe Illustrator 15.1.0, SVG Export Plug-In  -->
<!DOCTYPE svg PUBLIC "-//W3C//DTD SVG 1.1//EN" "http://www.w3.org/Graphics/SVG/1.1/DTD/svg11.dtd" [
	<!ENTITY ns_flows "http://ns.adobe.com/Flows/1.0/">
]>
<svg version="1.1"
	 xmlns="http://www.w3.org/2000/svg" xmlns:xlink="http://www.w3.org/1999/xlink" xmlns:a="http://ns.adobe.com/AdobeSVGViewerExtensions/3.0/"
	 x="0px" y="0px" width="166px" height="37px" viewBox="0 0 166 37" enable-background="new 0 0 166 37" xml:space="preserve">
<defs>
</defs>
<rect x="105" y="13" width="7" height="3"/>
<rect x="51" y="14" width="7" height="3"/>
<path d="M151.153,5h-0.013L147,8.838V5h-6V0h-21.514l-2.566,6.991L114.861,5H94v3.366L90.416,5H66v3.604L61.459,5h-0.004h-0.004H41
	v3.651L37.04,5h-4.167l-2.804-5H18v5H6.035L0,10.422v13.501L12.781,37H35v-1.527L35.722,37H56v-5.297L58.333,37h53.99L116,32.807V37
	h11.194l1.308-1.961L130.414,37h22.983L166,24.3V5H151.153z M18,14h-8v7h8v6H6.911L2,22.45V11.5L6.911,7H18V14z M41,27h-7V14h-7v13
	h-7V2h7v5h9.098L41,11.5V27z M65,27h-7v-5h-7v5h-8V7h17.514L65,11.5V27z M94,27h-7V14h-2v13h-7V14h-3v13h-7V7h21.55L94,11.5V27z
	 M119,13.687L114.127,19H119v3.45L114.127,27H97V7h17.127L119,11.5V13.687z M129,27h-7V7h7V27z M129,5h-7V2h7V5z M145,14h-7v7h7v6
	h-8.744L131,22.45V2h7v5h7V14z M164,13h-10v2h10v7.706L159.253,27H147v-5h10v-2h-10v-8.245L152.022,7H164V13z"/>
<rect x="105" y="20" width="7" height="3"/>
</svg>
