<?xml version="1.0" encoding="utf-8"?>
<!-- Generator: Adobe Illustrator 15.1.0, SVG Export Plug-In  -->
<!DOCTYPE svg PUBLIC "-//W3C//DTD SVG 1.1//EN" "http://www.w3.org/Graphics/SVG/1.1/DTD/svg11.dtd" [
	<!ENTITY ns_flows "http://ns.adobe.com/Flows/1.0/">
]>
<svg version="1.1"
	 xmlns="http://www.w3.org/2000/svg" xmlns:xlink="http://www.w3.org/1999/xlink" xmlns:a="http://ns.adobe.com/AdobeSVGViewerExtensions/3.0/"
	 x="0px" y="0px" width="192px" height="37px" viewBox="0 0 192 37" enable-background="new 0 0 192 37" xml:space="preserve">
<defs>
</defs>
<polygon points="176.688,6 171.633,10.787 166.453,6 142,6 142,0 120.606,0 118.92,8.244 116.235,6 96,6 96,9.552 91.742,6 66,6 
	66,9.353 62.664,6 42,6 42,9.534 38.218,6 34.271,6 31.236,0 19,0 19,6 6.867,6 0,11.368 0,24.618 13.801,37 36,37 36,36.574 
	37.307,37 58,37 58,32.864 59.902,37 114.753,37 118,33.801 118,37 130.049,37 130.926,34.639 133.407,37 153.318,37 155,34.551 
	155,37 178.962,37 192,24.619 192,6 "/>
<path fill="#FFFFFF" d="M3.135,23.411V12.41l4.833-4.4h10.891v6.599h-8.468v6.599h8.468v6.599H7.968L3.135,23.411z"/>
<path fill="#FFFFFF" d="M21.683,2.513h7.256V8.01h8.468l4.84,4.4v15.396h-7.257V14.608h-6.051v13.197h-7.256V2.513z"/>
<path fill="#FFFFFF" d="M44.952,8.01h16.936l4.839,4.4v15.396h-7.262v-5.497h-7.257v5.497h-7.256V8.01z M59.465,14.608h-7.257v3.3
	h7.257V14.608z"/>
<path fill="#FFFFFF" d="M69.234,8.01h21.774l4.84,4.4v15.396h-7.263V14.608h-2.417v13.197h-7.262V14.608H76.49v13.197h-7.256V8.01z"
	/>
<path fill="#FFFFFF" d="M98.574,8.01h16.936l4.839,4.4v2.198l-4.839,4.401h4.839v4.401l-4.839,4.395H98.574V8.01z M113.086,13.513
	h-7.256v3.299h7.256V13.513z M113.086,20.111h-7.256v3.3h7.256V20.111z"/>
<path fill="#FFFFFF" d="M123.192,2.513h7.257v3.299h-7.257V2.513z M123.192,8.01h7.257v19.796h-7.257V8.01z"/>
<path fill="#FFFFFF" d="M132.973,23.411V2.513h7.256V8.01h6.052v6.599h-6.052v6.599h6.052v6.599h-8.475L132.973,23.411z"/>
<path fill="#FFFFFF" d="M148.792,8.01h16.935l4.84,4.4v15.396h-7.263v-5.497h-7.256v5.497h-7.256V8.01z M163.304,14.608h-7.256v3.3
	h7.256V14.608z"/>
<path fill="#FFFFFF" d="M173.073,22.309h9.673v-2.197h-9.673V12.41l4.833-4.4h12.103v5.503h-9.68v2.197h9.68v7.701l-4.84,4.395
	h-12.096V22.309z"/>
</svg>
